<?xml version="1.0" encoding="utf-8"?>
<!-- Generator: Adobe Illustrator 26.0.1, SVG Export Plug-In . SVG Version: 6.00 Build 0)  -->
<svg version="1.1" id="Layer_1" xmlns="http://www.w3.org/2000/svg" xmlns:xlink="http://www.w3.org/1999/xlink" x="0px" y="0px"
	 viewBox="0 0 132 81" style="enable-background:new 0 0 132 81;" xml:space="preserve">
<style type="text/css">
	.st0{clip-path:url(#SVGID_00000120520247188866041060000000654263913643921575_);fill:#2B3033;}
	.st1{clip-path:url(#SVGID_00000084509093721076043300000007220196711701787298_);fill:#2B3033;}
	.st2{clip-path:url(#SVGID_00000061461503922688578160000013385844671049180854_);fill:#2B3033;}
	.st3{fill:#2B3033;}
	.st4{clip-path:url(#SVGID_00000117653013166976508750000008643310466151853484_);fill:#2B3033;}
	.st5{clip-path:url(#SVGID_00000171692544970993941160000011923830543295707027_);fill:#2B3033;}
	.st6{clip-path:url(#SVGID_00000125561610072917767400000001990759113628481194_);fill:#2B3033;}
	.st7{clip-path:url(#SVGID_00000104690598859969326450000006568083962817968539_);fill:#2B3033;}
	.st8{clip-path:url(#SVGID_00000060005330110746954760000016557773842259137452_);fill:#2B3033;}
	.st9{clip-path:url(#SVGID_00000115512332095822749140000017666089658618834581_);fill:#2B3033;}
	.st10{clip-path:url(#SVGID_00000109716539870442300440000004298465414687551887_);fill:#2B3033;}
	.st11{clip-path:url(#SVGID_00000164490104016858846350000009453305380253187485_);fill:#2B3033;}
	.st12{clip-path:url(#SVGID_00000112624500920701267660000004259876066345534861_);fill:#2B3033;}
</style>
<g>
	<g>
		<g>
			<defs>
				<rect id="SVGID_1_" x="0.8" y="1.9" width="130.4" height="75"/>
			</defs>
			<clipPath id="SVGID_00000070097687061303505920000005120888730930341282_">
				<use xlink:href="#SVGID_1_"  style="overflow:visible;"/>
			</clipPath>
			<path style="clip-path:url(#SVGID_00000070097687061303505920000005120888730930341282_);fill:#2B3033;" d="M83.6,1.9l47.6,52.2
				c0,0-6.9,2.4-11,2.4c-7.3,0-16.2-6.3-23.9-6.3c-6.4,0-12.7,4.6-12.7,4.6V1.9z"/>
		</g>
	</g>
	<g>
		<g>
			<defs>
				<rect id="SVGID_00000156549858131572840510000011020285368444477350_" x="0.8" y="1.9" width="130.4" height="75"/>
			</defs>
			<clipPath id="SVGID_00000133527324759293107030000006503148798012257177_">
				<use xlink:href="#SVGID_00000156549858131572840510000011020285368444477350_"  style="overflow:visible;"/>
			</clipPath>
			<path style="clip-path:url(#SVGID_00000133527324759293107030000006503148798012257177_);fill:#2B3033;" d="M131.2,64.3
				c0,0-6.9,2.4-11,2.4c-7.3,0-16.2-6.3-23.9-6.3c-6.4,0-12.7,4.6-12.7,4.6v-6.3c0,0,6.3-4.6,12.7-4.6c7.7,0,16.7,6.3,23.9,6.3
				c4.1,0,11-2.4,11-2.4V64.3z"/>
		</g>
	</g>
	<g>
		<g>
			<defs>
				<rect id="SVGID_00000076581111721035778860000007067012551287125140_" x="0.8" y="1.9" width="130.4" height="75"/>
			</defs>
			<clipPath id="SVGID_00000047774395633462204430000011861816627446624643_">
				<use xlink:href="#SVGID_00000076581111721035778860000007067012551287125140_"  style="overflow:visible;"/>
			</clipPath>
			<path style="clip-path:url(#SVGID_00000047774395633462204430000011861816627446624643_);fill:#2B3033;" d="M83.6,68.8
				c0,0,6.3-4.6,12.7-4.6c7.7,0,16.7,6.3,23.9,6.3c4.1,0,11-2.4,11-2.4v6.3c0,0-6.9,2.4-11,2.4c-7.3,0-16.2-6.3-23.9-6.3
				c-6.4,0-12.7,4.6-12.7,4.6V68.8z"/>
		</g>
	</g>
</g>
<rect x="1.6" y="50.6" class="st3" width="2.6" height="12.4"/>
<g>
	<g>
		<g>
			<defs>
				<rect id="SVGID_00000058582252061041280470000012040143037716532903_" x="0.8" y="1.9" width="130.4" height="75"/>
			</defs>
			<clipPath id="SVGID_00000008841205247150502040000001992267177519865220_">
				<use xlink:href="#SVGID_00000058582252061041280470000012040143037716532903_"  style="overflow:visible;"/>
			</clipPath>
			<path style="clip-path:url(#SVGID_00000008841205247150502040000001992267177519865220_);fill:#2B3033;" d="M10.9,53.2
				c-0.4,0.7-0.7,2-0.7,3.9c0,0-0.1,2.3,0.8,3.3c0.1,0.1,0.5,0.5,1,0.5c0.2,0,0.3,0,0.5-0.1c0.5-0.3,0.8-1,0.8-1.1
				c0.2-0.5,0.4-1.7,0.4-3.2c0-0.2,0-1.9-0.4-3c-0.1-0.2-0.4-1-1.2-1C11.6,52.5,11.2,52.6,10.9,53.2 M13.7,50.7
				c0.2,0.1,0.6,0.4,1.1,0.9c0.8,0.9,1.5,2.4,1.5,5.1c0,3.4-1.2,5.3-2.5,6.1c-0.3,0.2-0.9,0.5-1.9,0.5c-1.6,0-2.5-0.9-3-1.3
				c-0.7-1-1.4-2.4-1.4-5c0-0.5-0.1-4,2-5.8c0.4-0.3,1.1-0.9,2.4-0.9C12.5,50.3,13.1,50.4,13.7,50.7"/>
		</g>
	</g>
	<g>
		<g>
			<defs>
				<rect id="SVGID_00000151533386732983688100000017284037174203106205_" x="0.8" y="1.9" width="130.4" height="75"/>
			</defs>
			<clipPath id="SVGID_00000046306867840714399580000016534878704277010581_">
				<use xlink:href="#SVGID_00000151533386732983688100000017284037174203106205_"  style="overflow:visible;"/>
			</clipPath>
			<path style="clip-path:url(#SVGID_00000046306867840714399580000016534878704277010581_);fill:#2B3033;" d="M28,63h-2.5l-3.1-7
				l0.1,7H20V50.6h2.6l2.2,5.1c0.2,0.4,0.3,0.7,0.5,1.1c0.2,0.4,0.3,0.9,0.5,1.3l-0.2-7.6H28V63z"/>
		</g>
	</g>
</g>
<rect x="32.3" y="50.6" class="st3" width="2.6" height="12.4"/>
<g>
	<g>
		<g>
			<defs>
				<rect id="SVGID_00000076565708416081576430000017338452988556425362_" x="0.8" y="1.9" width="130.4" height="75"/>
			</defs>
			<clipPath id="SVGID_00000014606896195614190570000000663377910429193386_">
				<use xlink:href="#SVGID_00000076565708416081576430000017338452988556425362_"  style="overflow:visible;"/>
			</clipPath>
			<path style="clip-path:url(#SVGID_00000014606896195614190570000000663377910429193386_);fill:#2B3033;" d="M44.2,53.5
				c-0.6-0.4-1.1-0.8-1.8-0.8c-0.4,0-0.6,0.1-0.7,0.3c-0.3,0.3-0.4,0.8-0.4,0.9c0,0.4,0.1,0.7,0.2,0.9c0.3,0.5,0.9,0.9,1.8,1.8
				c0.8,0.8,1.3,1.5,1.3,2.7c0,0.7-0.1,1.2-0.2,1.5c-0.5,1.4-1.7,2.3-3.2,2.3c-0.9,0-1.5-0.3-2.3-0.7V60c0.6,0.4,1.2,0.8,2,0.8
				c0.3,0,0.5-0.1,0.6-0.1c0.2-0.1,0.6-0.4,0.6-1c0-0.1,0-0.3-0.1-0.5c-0.2-0.5-0.6-0.9-1-1.2c-0.4-0.4-0.8-0.7-1.2-1.1
				c-0.4-0.5-1.1-1.2-1.1-2.7c0-0.4,0-2.4,1.4-3.3c0.5-0.3,1.1-0.5,1.6-0.5c0.9,0,1.5,0.3,2.3,0.7v2.4C44,53.5,44.2,53.5,44.2,53.5z
				"/>
		</g>
	</g>
	<g>
		<g>
			<defs>
				<rect id="SVGID_00000021115941456667334790000000425043606398011035_" x="0.8" y="1.9" width="130.4" height="75"/>
			</defs>
			<clipPath id="SVGID_00000121980765750472220600000014285537605336540301_">
				<use xlink:href="#SVGID_00000021115941456667334790000000425043606398011035_"  style="overflow:visible;"/>
			</clipPath>
			<path style="clip-path:url(#SVGID_00000121980765750472220600000014285537605336540301_);fill:#2B3033;" d="M54.2,53
				c-0.2-0.1-0.5-0.1-1-0.1c-1.1,0-1.7,0.6-2,0.9c-0.5,0.5-1.1,1.5-1.1,3.1s0.7,2.5,1.1,3c0.8,0.9,1.5,1,2.1,1
				c0.4,0,0.7-0.1,0.9-0.2V63c-0.3,0.1-0.6,0.2-1.2,0.2c-1.1,0-2.9-0.2-4.3-2.4c-1.1-1.6-1.1-3.1-1.1-3.9c0-1.9,0.5-3.1,0.9-3.7
				c0.9-1.6,2.5-2.7,4.4-2.7c0.4,0,0.7,0,1.4,0.2V53H54.2z"/>
		</g>
	</g>
</g>
<polygon class="st3" points="60.4,55.4 62.6,55.4 62.6,50.6 65.2,50.6 65.2,63 62.6,63 62.6,57.8 60.4,57.8 60.4,63 57.8,63 
	57.8,50.6 60.4,50.6 "/>
<polygon class="st3" points="74.5,53 72,53 72,55.5 74.3,55.5 74.3,57.9 72,57.9 72,60.6 74.5,60.6 74.5,63 69.4,63 69.4,50.6 
	74.5,50.6 "/>
<polygon class="st3" points="4.8,66.7 3.7,69.7 2.7,66.7 0.8,66.7 2.8,71.3 2.8,75.6 4.7,75.6 4.7,71.3 6.6,66.7 "/>
<path class="st3" d="M8.9,72.7h1.2l-0.6-3.4L8.9,72.7z M12.5,75.6h-1.8l-0.3-1.5H8.6l-0.3,1.5H6.6l1.9-8.9h1.9L12.5,75.6z"/>
<g>
	<g>
		<g>
			<defs>
				<rect id="SVGID_00000003813875090687283180000010779250079188592059_" x="0.8" y="1.9" width="130.4" height="75"/>
			</defs>
			<clipPath id="SVGID_00000015337259444628837840000009340070479782109864_">
				<use xlink:href="#SVGID_00000003813875090687283180000010779250079188592059_"  style="overflow:visible;"/>
			</clipPath>
			<path style="clip-path:url(#SVGID_00000015337259444628837840000009340070479782109864_);fill:#2B3033;" d="M17.7,68.4
				c-0.1,0-0.4-0.1-0.7-0.1c-0.8,0-1.2,0.4-1.4,0.6c-0.3,0.4-0.8,1.1-0.8,2.2s0.5,1.8,0.8,2.1c0.6,0.6,1.1,0.7,1.5,0.7
				c0.3,0,0.5-0.1,0.6-0.1v1.7c-0.2,0.1-0.4,0.1-0.9,0.1c-0.8,0-2.1-0.1-3.1-1.7c-0.8-1.2-0.8-2.2-0.8-2.8c0-1.3,0.4-2.2,0.7-2.7
				c0.7-1.1,1.8-1.9,3.1-1.9c0.3,0,0.5,0,1,0.2V68.4z"/>
		</g>
	</g>
</g>
<polygon class="st3" points="20.7,70.1 22.3,70.1 22.3,66.7 24.2,66.7 24.2,75.6 22.3,75.6 22.3,71.9 20.7,71.9 20.7,75.6 
	18.9,75.6 18.9,66.7 20.7,66.7 "/>
<polygon class="st3" points="29.6,68.4 28.3,68.4 28.3,75.6 26.4,75.6 26.4,68.4 25.1,68.4 25.1,66.7 29.6,66.7 "/>
<g>
	<g>
		<g>
			<defs>
				<rect id="SVGID_00000159452886829904102690000003628859232319388294_" x="0.8" y="1.9" width="130.4" height="75"/>
			</defs>
			<clipPath id="SVGID_00000167387159065710572230000012497042847859194525_">
				<use xlink:href="#SVGID_00000159452886829904102690000003628859232319388294_"  style="overflow:visible;"/>
			</clipPath>
			<path style="clip-path:url(#SVGID_00000167387159065710572230000012497042847859194525_);fill:#2B3033;" d="M38.4,68.4
				c-0.1,0-0.4-0.1-0.7-0.1c-0.8,0-1.2,0.4-1.4,0.6c-0.3,0.4-0.8,1.1-0.8,2.2s0.5,1.8,0.8,2.1c0.6,0.6,1.1,0.7,1.5,0.7
				c0.3,0,0.5-0.1,0.6-0.1v1.7c-0.2,0.1-0.4,0.1-0.9,0.1c-0.8,0-2.1-0.1-3.1-1.7c-0.8-1.2-0.8-2.2-0.8-2.8c0-1.3,0.4-2.2,0.7-2.7
				c0.7-1.1,1.8-1.9,3.1-1.9c0.3,0,0.5,0,1,0.2C38.4,66.7,38.4,68.4,38.4,68.4z"/>
		</g>
	</g>
</g>
<polygon class="st3" points="41.4,70.1 43,70.1 43,66.7 44.9,66.7 44.9,75.6 43,75.6 43,71.9 41.4,71.9 41.4,75.6 39.6,75.6 
	39.6,66.7 41.4,66.7 "/>
<path class="st3" d="M48.2,72.7h1.2l-0.6-3.4L48.2,72.7z M51.8,75.6H50l-0.3-1.5h-1.8l-0.3,1.5h-1.7l1.9-8.9h1.9L51.8,75.6z"/>
<g>
	<g>
		<g>
			<defs>
				<rect id="SVGID_00000106120647413444226750000008349175094707444630_" x="0.8" y="1.9" width="130.4" height="75"/>
			</defs>
			<clipPath id="SVGID_00000165928580147844932260000016191388354223001228_">
				<use xlink:href="#SVGID_00000106120647413444226750000008349175094707444630_"  style="overflow:visible;"/>
			</clipPath>
			<path style="clip-path:url(#SVGID_00000165928580147844932260000016191388354223001228_);fill:#2B3033;" d="M54.8,70.5
				c0.4,0,0.5,0,0.7-0.1c0.6-0.2,0.6-1,0.6-1.1s0-0.4-0.2-0.7c-0.2-0.5-0.7-0.5-1.1-0.5V70.5z M54.6,66.7c1.1,0,2.2,0,2.9,1
				c0.2,0.3,0.4,0.8,0.4,1.5c0,0.3,0,1.2-0.7,1.9c-0.1,0.1-0.2,0.2-0.5,0.4l1.6,4.1h-1.9L54.8,71v4.6h-1.9v-8.9H54.6z"/>
		</g>
	</g>
</g>
<polygon class="st3" points="63.5,68.4 62.1,68.4 62.1,75.6 60.3,75.6 60.3,68.4 58.9,68.4 58.9,66.7 63.5,66.7 "/>
<polygon class="st3" points="68.2,68.4 66.3,68.4 66.3,70.2 68,70.2 68,71.9 66.3,71.9 66.3,73.9 68.2,73.9 68.2,75.6 64.5,75.6 
	64.5,66.7 68.2,66.7 "/>
<g>
	<g>
		<g>
			<defs>
				<rect id="SVGID_00000062163079142347031230000015671718949631512249_" x="0.8" y="1.9" width="130.4" height="75"/>
			</defs>
			<clipPath id="SVGID_00000032615261053859861940000013583053751584194749_">
				<use xlink:href="#SVGID_00000062163079142347031230000015671718949631512249_"  style="overflow:visible;"/>
			</clipPath>
			<path style="clip-path:url(#SVGID_00000032615261053859861940000013583053751584194749_);fill:#2B3033;" d="M71.6,70.5
				c0.4,0,0.5,0,0.7-0.1c0.6-0.2,0.6-1,0.6-1.1s0-0.4-0.2-0.7c-0.2-0.5-0.7-0.5-1.1-0.5V70.5z M71.4,66.7c1.1,0,2.2,0,2.9,1
				c0.2,0.3,0.4,0.8,0.4,1.5c0,0.3,0,1.2-0.7,1.9c-0.1,0.1-0.2,0.2-0.5,0.4l1.6,4.1h-1.9L71.6,71v4.6h-1.9v-8.9H71.4z"/>
		</g>
	</g>
	<g>
		<g>
			<defs>
				<rect id="SVGID_00000165949168159139937340000013851056130852802454_" x="0.8" y="1.9" width="130.4" height="75"/>
			</defs>
			<clipPath id="SVGID_00000080196336515112629280000001861168690189677752_">
				<use xlink:href="#SVGID_00000165949168159139937340000013851056130852802454_"  style="overflow:visible;"/>
			</clipPath>
			<path style="clip-path:url(#SVGID_00000080196336515112629280000001861168690189677752_);fill:#2B3033;" d="M64,3.3
				c4.6,0,7.2,1,7.9,1.3c0.5,0.2,1,0.4,1.4,0.7c0,0.7,0,8.5-0.1,10.8c-0.4-0.3-0.9-0.7-1.5-1.1c-2.3-1.6-4.6-2.3-7.2-2.3
				c-2.9,0-5.7,1.1-7.9,3c-1.2,1.1-4.1,4.3-4.1,9.7c0,1.8,0.4,4.6,2.1,7.3c1.2,1.9,4,5.2,9.3,5.2c4.2,0,7.5-2.1,9.3-3.4v10.3
				c-2.1,1.1-5.2,2.5-10.6,2.5c-7.6,0-11.6-2.6-13.9-4.5c-4.7-4-7.6-10.4-7.6-17.2c0-1.8,0.2-5.3,1.8-9.2l-1.2-0.7l-6.9,10v20.4
				H24.2V25.8L13.7,10.7v35.5h-11V4.4h19.6c0.4,0.6,7.2,11.4,7.2,11.4s6.7-10.8,7-11.4h13.1C48.7,5.7,47,8.2,47,8.2l1.1,0.9
				C52.2,5.3,57.7,3.3,64,3.3 M50.6,5.4C51,4.9,52.3,3,52.3,3H35.8c0,0-5.3,8.6-6.3,10.1C28.5,11.5,23.1,3,23.1,3H1.3v44.6h13.8
				V15.1c1.9,2.7,7.4,10.8,7.6,11.1v21.3h13.6V26.2c0.1-0.2,2.2-3.2,4.1-6c-0.5,2.3-0.6,4.2-0.6,5.3c0,7.2,3,14,8.1,18.3
				c2.5,2.1,6.8,4.9,14.8,4.9c6.1,0,9.4-1.7,11.6-2.8l0.4-0.2V31.6l-1.3,1c-1.3,1.1-4.8,3.9-9.4,3.9c-4.4,0-6.9-2.4-8.1-4.5
				c-1.6-2.5-1.9-5-1.9-6.6c0-5,2.8-7.9,3.6-8.7c1.9-1.7,4.3-2.6,6.9-2.6c2.3,0,4.3,0.7,6.4,2.1c1.1,0.7,1.7,1.3,2.1,1.7l1.5,1.4
				v-1.6l0.1-13.2l-0.3-0.2c-0.6-0.4-1.3-0.7-1.9-1c-0.9-0.4-3.7-1.5-8.5-1.5C59,1.9,54.4,3.1,50.6,5.4"/>
		</g>
	</g>
</g>
</svg>
