<?xml version="1.0" encoding="utf-8"?>
<!-- Generator: Adobe Illustrator 26.0.1, SVG Export Plug-In . SVG Version: 6.00 Build 0)  -->
<svg version="1.1" id="Layer_1" xmlns="http://www.w3.org/2000/svg" xmlns:xlink="http://www.w3.org/1999/xlink" x="0px" y="0px"
	 viewBox="0 0 86.4 57.1" style="enable-background:new 0 0 86.4 57.1;" xml:space="preserve">
<style type="text/css">
	.st0{clip-path:url(#SVGID_00000108266701426045163870000002934608223464162238_);fill:#FFFFFF;}
	.st1{clip-path:url(#SVGID_00000148634037549034717250000008283672928556231833_);fill:#FFFFFF;}
	.st2{clip-path:url(#SVGID_00000170265286139657718420000000847932898397210801_);fill:#FFFFFF;}
	.st3{fill:#FFFFFF;}
	.st4{clip-path:url(#SVGID_00000039813843646132976460000011720195186526925727_);fill:#FFFFFF;}
	.st5{clip-path:url(#SVGID_00000038387508863351264310000003152501088670726809_);fill:#FFFFFF;}
	.st6{clip-path:url(#SVGID_00000021806523084244062980000008174749502441651077_);fill:#FFFFFF;}
	.st7{clip-path:url(#SVGID_00000134967455706806817310000006076964933276932780_);fill:#FFFFFF;}
	.st8{clip-path:url(#SVGID_00000013161481377431085600000010468546505257997747_);fill:#FFFFFF;}
	.st9{clip-path:url(#SVGID_00000000206546620465210700000010844287889108073392_);fill:#FFFFFF;}
	.st10{clip-path:url(#SVGID_00000082349414163620073200000000029906026590826373_);fill:#FFFFFF;}
	.st11{clip-path:url(#SVGID_00000165921274858934000320000000947121042495070635_);fill:#FFFFFF;}
	.st12{clip-path:url(#SVGID_00000134249726158888811170000011677436275900867485_);fill:#FFFFFF;}
</style>
<g>
	<defs>
		<rect id="SVGID_1_" x="7.3" y="6.2" width="70.4" height="40.5"/>
	</defs>
	<clipPath id="SVGID_00000162328140732197325430000003730439636996382901_">
		<use xlink:href="#SVGID_1_"  style="overflow:visible;"/>
	</clipPath>
	<path style="clip-path:url(#SVGID_00000162328140732197325430000003730439636996382901_);fill:#FFFFFF;" d="M52,6.2l25.7,28.2
		c0,0-3.7,1.3-5.9,1.3c-3.9,0-8.7-3.4-12.9-3.4c-3.5,0-6.9,2.5-6.9,2.5V6.2z"/>
</g>
<g>
	<defs>
		<rect id="SVGID_00000039110109375858437570000016480047032906962099_" x="7.3" y="6.2" width="70.4" height="40.5"/>
	</defs>
	<clipPath id="SVGID_00000011032950454998095240000017320957650861529742_">
		<use xlink:href="#SVGID_00000039110109375858437570000016480047032906962099_"  style="overflow:visible;"/>
	</clipPath>
	<path style="clip-path:url(#SVGID_00000011032950454998095240000017320957650861529742_);fill:#FFFFFF;" d="M77.7,39.9
		c0,0-3.7,1.3-5.9,1.3c-3.9,0-8.7-3.4-12.9-3.4c-3.5,0-6.9,2.5-6.9,2.5v-3.4c0,0,3.4-2.5,6.9-2.5c4.2,0,9,3.4,12.9,3.4
		c2.2,0,5.9-1.3,5.9-1.3V39.9z"/>
</g>
<g>
	<g>
		<defs>
			<rect id="SVGID_00000058591547063159409740000014820711169991147929_" x="7.3" y="6.2" width="70.4" height="40.5"/>
		</defs>
		<clipPath id="SVGID_00000169520895224608246670000013867282747742364061_">
			<use xlink:href="#SVGID_00000058591547063159409740000014820711169991147929_"  style="overflow:visible;"/>
		</clipPath>
		<path style="clip-path:url(#SVGID_00000169520895224608246670000013867282747742364061_);fill:#FFFFFF;" d="M52,42.3
			c0,0,3.4-2.5,6.9-2.5c4.2,0,9,3.4,12.9,3.4c2.2,0,5.9-1.3,5.9-1.3v3.4c0,0-3.7,1.3-5.9,1.3c-3.9,0-8.7-3.4-12.9-3.4
			c-3.5,0-6.9,2.5-6.9,2.5V42.3z"/>
	</g>
</g>
<rect x="7.7" y="32.5" class="st3" width="1.4" height="6.7"/>
<g>
	<g>
		<g>
			<defs>
				<rect id="SVGID_00000062908277770470739510000016972403244012472218_" x="7.3" y="6.2" width="70.4" height="40.5"/>
			</defs>
			<clipPath id="SVGID_00000145017125019463929430000011595899086266469511_">
				<use xlink:href="#SVGID_00000062908277770470739510000016972403244012472218_"  style="overflow:visible;"/>
			</clipPath>
			<path style="clip-path:url(#SVGID_00000145017125019463929430000011595899086266469511_);fill:#FFFFFF;" d="M12.7,33.9
				c-0.2,0.4-0.4,1.1-0.4,2.1c0,0-0.1,1.2,0.4,1.8c0.1,0.1,0.3,0.3,0.5,0.3c0.1,0,0.2,0,0.3-0.1c0.3-0.2,0.4-0.5,0.4-0.6
				c0.1-0.3,0.2-0.9,0.2-1.7c0-0.1,0-1-0.2-1.6c-0.1-0.1-0.2-0.5-0.6-0.5C13.1,33.5,12.9,33.6,12.7,33.9 M14.3,32.6
				c0.1,0.1,0.3,0.2,0.6,0.5c0.4,0.5,0.8,1.3,0.8,2.8c0,1.8-0.6,2.9-1.3,3.3c-0.2,0.1-0.5,0.3-1,0.3c-0.9,0-1.3-0.5-1.6-0.7
				c-0.4-0.5-0.8-1.3-0.8-2.7c0-0.3-0.1-2.2,1.1-3.1c0.2-0.2,0.6-0.5,1.3-0.5C13.6,32.3,13.9,32.4,14.3,32.6"/>
		</g>
	</g>
	<g>
		<g>
			<defs>
				<rect id="SVGID_00000127747767541384986140000000401725958434161546_" x="7.3" y="6.2" width="70.4" height="40.5"/>
			</defs>
			<clipPath id="SVGID_00000119798177329185950450000016436183697628028555_">
				<use xlink:href="#SVGID_00000127747767541384986140000000401725958434161546_"  style="overflow:visible;"/>
			</clipPath>
			<path style="clip-path:url(#SVGID_00000119798177329185950450000016436183697628028555_);fill:#FFFFFF;" d="M22,39.2h-1.3
				L19,35.4l0.1,3.8h-1.3v-6.7h1.4l1.2,2.8c0.1,0.2,0.2,0.4,0.3,0.6c0.1,0.2,0.2,0.5,0.3,0.7l-0.1-4.1H22V39.2z"/>
		</g>
	</g>
</g>
<rect x="24.3" y="32.5" class="st3" width="1.4" height="6.7"/>
<g>
	<g>
		<g>
			<defs>
				<rect id="SVGID_00000141437933078481581870000014422997752397839287_" x="7.3" y="6.2" width="70.4" height="40.5"/>
			</defs>
			<clipPath id="SVGID_00000132045911313364394360000014995461818142442932_">
				<use xlink:href="#SVGID_00000141437933078481581870000014422997752397839287_"  style="overflow:visible;"/>
			</clipPath>
			<path style="clip-path:url(#SVGID_00000132045911313364394360000014995461818142442932_);fill:#FFFFFF;" d="M30.7,34.1
				c-0.3-0.2-0.6-0.4-1-0.4c-0.2,0-0.3,0.1-0.4,0.2c-0.2,0.2-0.2,0.4-0.2,0.5c0,0.2,0.1,0.4,0.1,0.5c0.2,0.3,0.5,0.5,1,1
				c0.4,0.4,0.7,0.8,0.7,1.5c0,0.4-0.1,0.6-0.1,0.8c-0.3,0.8-0.9,1.2-1.7,1.2c-0.5,0-0.8-0.2-1.2-0.4v-1.3c0.3,0.2,0.6,0.4,1.1,0.4
				c0.2,0,0.3-0.1,0.3-0.1c0.1-0.1,0.3-0.2,0.3-0.5c0-0.1,0-0.2-0.1-0.3c-0.1-0.3-0.3-0.5-0.5-0.6c-0.2-0.2-0.4-0.4-0.6-0.6
				c-0.2-0.3-0.6-0.6-0.6-1.5c0-0.2,0-1.3,0.8-1.8c0.3-0.2,0.6-0.3,0.9-0.3c0.5,0,0.8,0.2,1.2,0.4v1.3
				C30.6,34.1,30.7,34.1,30.7,34.1z"/>
		</g>
	</g>
	<g>
		<g>
			<defs>
				<rect id="SVGID_00000075884852178935488520000003296691970172243376_" x="7.3" y="6.2" width="70.4" height="40.5"/>
			</defs>
			<clipPath id="SVGID_00000088830451628412299540000005893337449377386889_">
				<use xlink:href="#SVGID_00000075884852178935488520000003296691970172243376_"  style="overflow:visible;"/>
			</clipPath>
			<path style="clip-path:url(#SVGID_00000088830451628412299540000005893337449377386889_);fill:#FFFFFF;" d="M36.1,33.8
				c-0.1-0.1-0.3-0.1-0.5-0.1c-0.6,0-0.9,0.3-1.1,0.5c-0.3,0.3-0.6,0.8-0.6,1.7c0,0.9,0.4,1.3,0.6,1.6c0.4,0.5,0.8,0.5,1.1,0.5
				c0.2,0,0.4-0.1,0.5-0.1v1.2c-0.2,0.1-0.3,0.1-0.6,0.1c-0.6,0-1.6-0.1-2.3-1.3c-0.6-0.9-0.6-1.7-0.6-2.1c0-1,0.3-1.7,0.5-2
				c0.5-0.9,1.3-1.5,2.4-1.5c0.2,0,0.4,0,0.8,0.1L36.1,33.8L36.1,33.8z"/>
		</g>
	</g>
</g>
<polygon class="st3" points="39.5,35.1 40.7,35.1 40.7,32.5 42.1,32.5 42.1,39.2 40.7,39.2 40.7,36.4 39.5,36.4 39.5,39.2 
	38.1,39.2 38.1,32.5 39.5,32.5 "/>
<polygon class="st3" points="47.1,33.8 45.7,33.8 45.7,35.1 47,35.1 47,36.4 45.7,36.4 45.7,37.9 47.1,37.9 47.1,39.2 44.3,39.2 
	44.3,32.5 47.1,32.5 "/>
<polygon class="st3" points="9.5,41.2 8.9,42.8 8.3,41.2 7.3,41.2 8.4,43.7 8.4,46 9.4,46 9.4,43.7 10.4,41.2 "/>
<path class="st3" d="M11.7,44.4h0.6L12,42.6L11.7,44.4z M13.6,46h-1l-0.2-0.8h-1L11.3,46h-0.9l1-4.8h1L13.6,46z"/>
<g>
	<g>
		<g>
			<defs>
				<rect id="SVGID_00000070838916739978482030000003220285545696762043_" x="7.3" y="6.2" width="70.4" height="40.5"/>
			</defs>
			<clipPath id="SVGID_00000160159123710168929060000002315773461492608185_">
				<use xlink:href="#SVGID_00000070838916739978482030000003220285545696762043_"  style="overflow:visible;"/>
			</clipPath>
			<path style="clip-path:url(#SVGID_00000160159123710168929060000002315773461492608185_);fill:#FFFFFF;" d="M16.4,42.1
				c-0.1,0-0.2-0.1-0.4-0.1c-0.4,0-0.6,0.2-0.8,0.3c-0.2,0.2-0.4,0.6-0.4,1.2s0.3,1,0.4,1.1c0.3,0.3,0.6,0.4,0.8,0.4
				c0.2,0,0.3-0.1,0.3-0.1v0.9C16.3,46,16.2,46,15.9,46c-0.4,0-1.1-0.1-1.7-0.9c-0.4-0.6-0.4-1.2-0.4-1.5c0-0.7,0.2-1.2,0.4-1.5
				c0.4-0.6,1-1,1.7-1c0.2,0,0.3,0,0.5,0.1V42.1z"/>
		</g>
	</g>
</g>
<polygon class="st3" points="18,43 18.9,43 18.9,41.2 19.9,41.2 19.9,46 18.9,46 18.9,44 18,44 18,46 17.1,46 17.1,41.2 18,41.2 "/>
<polygon class="st3" points="22.8,42.1 22.1,42.1 22.1,46 21.1,46 21.1,42.1 20.4,42.1 20.4,41.2 22.8,41.2 "/>
<g>
	<g>
		<g>
			<defs>
				<rect id="SVGID_00000002367362166129194430000017649937000458679438_" x="7.3" y="6.2" width="70.4" height="40.5"/>
			</defs>
			<clipPath id="SVGID_00000141452031665334220480000018434942162498918064_">
				<use xlink:href="#SVGID_00000002367362166129194430000017649937000458679438_"  style="overflow:visible;"/>
			</clipPath>
			<path style="clip-path:url(#SVGID_00000141452031665334220480000018434942162498918064_);fill:#FFFFFF;" d="M27.6,42.1
				c-0.1,0-0.2-0.1-0.4-0.1c-0.4,0-0.6,0.2-0.8,0.3C26.3,42.6,26,43,26,43.6s0.3,1,0.4,1.1c0.3,0.3,0.6,0.4,0.8,0.4
				c0.2,0,0.3-0.1,0.3-0.1v0.9C27.5,46,27.4,46,27.1,46c-0.4,0-1.1-0.1-1.7-0.9C25,44.4,25,43.9,25,43.6c0-0.7,0.2-1.2,0.4-1.5
				c0.4-0.6,1-1,1.7-1c0.2,0,0.3,0,0.5,0.1C27.6,41.2,27.6,42.1,27.6,42.1z"/>
		</g>
	</g>
</g>
<polygon class="st3" points="29.2,43 30.1,43 30.1,41.2 31.1,41.2 31.1,46 30.1,46 30.1,44 29.2,44 29.2,46 28.2,46 28.2,41.2 
	29.2,41.2 "/>
<path class="st3" d="M32.9,44.4h0.6l-0.3-1.8L32.9,44.4z M34.8,46h-1l-0.2-0.8h-1L32.6,46h-0.9l1-4.8h1L34.8,46z"/>
<g>
	<g>
		<g>
			<defs>
				<rect id="SVGID_00000170999585568846316060000002668501641420868536_" x="7.3" y="6.2" width="70.4" height="40.5"/>
			</defs>
			<clipPath id="SVGID_00000061455311619838400700000009840649231539903676_">
				<use xlink:href="#SVGID_00000170999585568846316060000002668501641420868536_"  style="overflow:visible;"/>
			</clipPath>
			<path style="clip-path:url(#SVGID_00000061455311619838400700000009840649231539903676_);fill:#FFFFFF;" d="M36.4,43.2
				c0.2,0,0.3,0,0.4-0.1c0.3-0.1,0.3-0.5,0.3-0.6s0-0.2-0.1-0.4c-0.1-0.3-0.4-0.3-0.6-0.3V43.2z M36.3,41.2c0.6,0,1.2,0,1.6,0.5
				c0.1,0.2,0.2,0.4,0.2,0.8c0,0.2,0,0.6-0.4,1c-0.1,0.1-0.1,0.1-0.3,0.2l0.9,2.2h-1l-0.9-2.5V46h-1v-4.8H36.3z"/>
		</g>
	</g>
</g>
<polygon class="st3" points="41.1,42.1 40.4,42.1 40.4,46 39.4,46 39.4,42.1 38.7,42.1 38.7,41.2 41.1,41.2 "/>
<polygon class="st3" points="43.7,42.1 42.6,42.1 42.6,43.1 43.6,43.1 43.6,44 42.6,44 42.6,45.1 43.7,45.1 43.7,46 41.7,46 
	41.7,41.2 43.7,41.2 "/>
<g>
	<g>
		<g>
			<defs>
				<rect id="SVGID_00000146493149679870620890000002377853799200181157_" x="7.3" y="6.2" width="70.4" height="40.5"/>
			</defs>
			<clipPath id="SVGID_00000046321319810570344700000000058979906645757357_">
				<use xlink:href="#SVGID_00000146493149679870620890000002377853799200181157_"  style="overflow:visible;"/>
			</clipPath>
			<path style="clip-path:url(#SVGID_00000046321319810570344700000000058979906645757357_);fill:#FFFFFF;" d="M45.5,43.2
				c0.2,0,0.3,0,0.4-0.1c0.3-0.1,0.3-0.5,0.3-0.6s0-0.2-0.1-0.4c-0.1-0.3-0.4-0.3-0.6-0.3V43.2z M45.4,41.2c0.6,0,1.2,0,1.6,0.5
				c0.1,0.2,0.2,0.4,0.2,0.8c0,0.2,0,0.6-0.4,1c-0.1,0.1-0.1,0.1-0.3,0.2l0.9,2.2h-1l-0.9-2.5V46h-1v-4.8H45.4z"/>
		</g>
	</g>
	<g>
		<g>
			<defs>
				<rect id="SVGID_00000049201196837681782710000017207503934054645940_" x="7.3" y="6.2" width="70.4" height="40.5"/>
			</defs>
			<clipPath id="SVGID_00000026866728622197530180000000519489325424934585_">
				<use xlink:href="#SVGID_00000049201196837681782710000017207503934054645940_"  style="overflow:visible;"/>
			</clipPath>
			<path style="clip-path:url(#SVGID_00000026866728622197530180000000519489325424934585_);fill:#FFFFFF;" d="M41.4,7
				c2.5,0,3.9,0.5,4.3,0.7c0.3,0.1,0.5,0.2,0.8,0.4c0,0.4,0,4.6-0.1,5.8c-0.2-0.2-0.5-0.4-0.8-0.6c-1.2-0.9-2.5-1.2-3.9-1.2
				c-1.6,0-3.1,0.6-4.3,1.6c-0.6,0.6-2.2,2.3-2.2,5.2c0,1,0.2,2.5,1.1,3.9c0.6,1,2.2,2.8,5,2.8c2.3,0,4-1.1,5-1.8v5.6
				c-1.1,0.6-2.8,1.3-5.7,1.3c-4.1,0-6.3-1.4-7.5-2.4C30.6,26.1,29,22.7,29,19c0-1,0.1-2.9,1-5l-0.6-0.4l-3.7,5.4v11h-5.7v-11
				L14.3,11v19.2H8.3V7.6h10.6c0.2,0.3,3.9,6.2,3.9,6.2s3.6-5.8,3.8-6.2h7.1c-0.5,0.7-1.4,2.1-1.4,2.1l0.6,0.5C35,8,38,7,41.4,7
				 M34.2,8.1c0.2-0.3,0.9-1.3,0.9-1.3h-8.9c0,0-2.9,4.6-3.4,5.5c-0.5-0.9-3.5-5.5-3.5-5.5H7.6v24.1H15V13.3c1,1.5,4,5.8,4.1,6v11.5
				h7.3V19.3c0.1-0.1,1.2-1.7,2.2-3.2c-0.3,1.2-0.3,2.3-0.3,2.9c0,3.9,1.6,7.6,4.4,9.9c1.3,1.1,3.7,2.6,8,2.6c3.3,0,5.1-0.9,6.3-1.5
				l0.2-0.1v-7.6l-0.7,0.5c-0.7,0.6-2.6,2.1-5.1,2.1c-2.4,0-3.7-1.3-4.4-2.4c-0.9-1.3-1-2.7-1-3.6c0-2.7,1.5-4.3,1.9-4.7
				c1-0.9,2.3-1.4,3.7-1.4c1.2,0,2.3,0.4,3.5,1.1c0.6,0.4,0.9,0.7,1.1,0.9l0.8,0.8v-0.9l0.1-7.1L47,7.5c-0.3-0.2-0.7-0.4-1-0.5
				c-0.5-0.2-2-0.8-4.6-0.8C38.7,6.2,36.2,6.9,34.2,8.1"/>
		</g>
	</g>
</g>
</svg>
